HIERARCHY
ROOT root
{
  OFFSET -63.9245 92.6846 28.11
  CHANNELS 6 Xposition Yposition Zposition Zrotation Xrotation Yrotation
  JOINT lowerback
  {
    OFFSET 0 0 0
    CHANNELS 6 Xposition Yposition Zposition Zrotation Xrotation Yrotation
    JOINT upperback
    {
      OFFSET -0.0146535 10.7314 1.20016
      CHANNELS 6 Xposition Yposition Zposition Zrotation Xrotation Yrotation
      JOINT thorax
      {
        OFFSET -0.0615349 10.8421 0.200216
        CHANNELS 6 Xposition Yposition Zposition Zrotation Xrotation Yrotation
        JOINT lowerneck
        {
          OFFSET -0.0803938 10.955 -0.362586
          CHANNELS 6 Xposition Yposition Zposition Zrotation Xrotation Yrotation
          JOINT upperneck
          {
            OFFSET 0.744525 13.1821 -0.716092
            CHANNELS 6 Xposition Yposition Zposition Zrotation Xrotation Yrotation
            JOINT head
            {
              OFFSET -0.714609 12.8109 -2.75709
              CHANNELS 6 Xposition Yposition Zposition Zrotation Xrotation Yrotation
              End headSite
              {
                OFFSET -0.301711 13.3161 -0.870562
              }
            }
          }
        }
        JOINT lclavicle
        {
          OFFSET -0.0803938 10.955 -0.362586
          CHANNELS 6 Xposition Yposition Zposition Zrotation Xrotation Yrotation
          JOINT lhumerus
          {
            OFFSET 21.0494 8.71366 -1.80014
            CHANNELS 6 Xposition Yposition Zposition Zrotation Xrotation Yrotation
            JOINT lradius
            {
              OFFSET 0 -27.9395 0
              CHANNELS 6 Xposition Yposition Zposition Zrotation Xrotation Yrotation
              JOINT lwrist
              {
                OFFSET 0 -15.5821 0
                CHANNELS 6 Xposition Yposition Zposition Zrotation Xrotation Yrotation
                JOINT lhand
                {
                  OFFSET 0 -7.79103 0
                  CHANNELS 6 Xposition Yposition Zposition Zrotation Xrotation Yrotation
                  JOINT lfingers
                  {
                    OFFSET 0 -4.76355 0
                    CHANNELS 6 Xposition Yposition Zposition Zrotation Xrotation Yrotation
                    End lfingersSite
                    {
                      OFFSET 0 -3.8405 0
                    }
                  }
                }
                JOINT lthumb
                {
                  OFFSET 0 -7.79103 0
                  CHANNELS 6 Xposition Yposition Zposition Zrotation Xrotation Yrotation
                  End lthumbSite
                  {
                    OFFSET 0 -5.5142 0
                  }
                }
              }
            }
          }
        }
        JOINT rclavicle
        {
          OFFSET -0.0803938 10.955 -0.362586
          CHANNELS 6 Xposition Yposition Zposition Zrotation Xrotation Yrotation
          JOINT rhumerus
          {
            OFFSET -22.6442 7.32563 -0.641706
            CHANNELS 6 Xposition Yposition Zposition Zrotation Xrotation Yrotation
            JOINT rradius
            {
              OFFSET 0 -24.4394 0
              CHANNELS 6 Xposition Yposition Zposition Zrotation Xrotation Yrotation
              JOINT rwrist
              {
                OFFSET 0 -18.0654 0
                CHANNELS 6 Xposition Yposition Zposition Zrotation Xrotation Yrotation
                JOINT rhand
                {
                  OFFSET 0 -9.03275 0
                  CHANNELS 6 Xposition Yposition Zposition Zrotation Xrotation Yrotation
                  JOINT rfingers
                  {
                    OFFSET 0 -5.42111 0
                    CHANNELS 6 Xposition Yposition Zposition Zrotation Xrotation Yrotation
                    End rfingersSite
                    {
                      OFFSET 0 -4.37064 0
                    }
                  }
                }
                JOINT rthumb
                {
                  OFFSET 0 -9.03275 0
                  CHANNELS 6 Xposition Yposition Zposition Zrotation Xrotation Yrotation
                  End rthumbSite
                  {
                    OFFSET 0 -6.27538 0
                  }
                }
              }
            }
          }
        }
      }
    }
  }
  JOINT rfemur
  {
    OFFSET -6.87808 -8.58224 4.63091
    CHANNELS 6 Xposition Yposition Zposition Zrotation Xrotation Yrotation
    JOINT rtibia
    {
      OFFSET 1.05643e-005 -39.9586 0
      CHANNELS 6 Xposition Yposition Zposition Zrotation Xrotation Yrotation
      JOINT rfoot
      {
        OFFSET 0 -32.7363 0
        CHANNELS 6 Xposition Yposition Zposition Zrotation Xrotation Yrotation
        JOINT rtoes
        {
          OFFSET 0 -11.385 -7.56517
          CHANNELS 6 Xposition Yposition Zposition Zrotation Xrotation Yrotation
          End rtoesSite
          {
            OFFSET 0 -6.46114 0
          }
        }
      }
    }
  }
  JOINT lfemur
  {
    OFFSET 6.18079 -8.58223 4.6309
    CHANNELS 6 Xposition Yposition Zposition Zrotation Xrotation Yrotation
    JOINT ltibia
    {
      OFFSET -1.0381e-005 -39.2652 0
      CHANNELS 6 Xposition Yposition Zposition Zrotation Xrotation Yrotation
      JOINT lfoot
      {
        OFFSET -0.00334357 -31.3814 0
        CHANNELS 6 Xposition Yposition Zposition Zrotation Xrotation Yrotation
        JOINT ltoes
        {
          OFFSET 0 -9.94555 -8.16007
          CHANNELS 6 Xposition Yposition Zposition Zrotation Xrotation Yrotation
          End ltoesSite
          {
            OFFSET 0 -5.95839 0
          }
        }
      }
    }
  }
}
MOTION
Frames:	4
Frame Time:	0.00833333
-63.9245 92.6846 28.11 -9.42451 -2.56131 93.5551 0 0 0 0.396981 -12.8859 -3.30576 -0.0146535 10.7314 1.20016 -0.112928 -4.25426 -4.23998 -0.0615349 10.8421 0.200216 -0.950432 2.6714 -2.02688 -0.0803938 10.955 -0.362586 -11.2789 -5.2908 -10.96 0.744525 13.1821 -0.716092 1.51018 4.27995 39.5853 -0.714609 12.8109 -2.75709 154.734 6.6159 114.247 -0.0803938 10.955 -0.362586 1.17283e-014 0 5.74239e-014 21.0494 8.71366 -1.80014 -5.66208 9.27118 -151.589 1.08638e-009 -27.9395 6.27219e-010 -0 22.5884 0 6.05876e-010 -15.5821 3.49801e-010 9.89009e-015 -6.4014e-015 -155.826 -1.45919e-025 -7.79103 -3.4981e-010 5.60791 -35.6222 0 -1.65336e-025 -4.76355 -2.13835e-010 0 7.12502 -0 -1.45919e-025 -7.79103 -3.4981e-010 -9.5933 -8.7452 2.35682e-015 -0.0803938 10.955 -0.362586 1.17283e-014 0 5.74239e-014 -22.6442 7.32563 -0.641706 4.8436 5.46247 161.631 -9.50233e-010 -24.4394 5.48614e-010 -0 15.5404 0 -7.02403e-010 -18.0654 4.0553e-010 3.45412e-015 -6.04501e-015 149.487 1.69176e-025 -9.03275 -4.05569e-010 3.02337 -36.7393 0 1.88163e-025 -5.42111 -2.43422e-010 0 7.12502 -0 1.69176e-025 -9.03275 -4.05569e-010 18.2725 -9.82313 -3.50342e-015 -6.87808 -8.58224 4.63091 -1.7726 -13.7478 -14.8377 1.05643e-005 -39.9586 0 -0 25.4162 0 8.65485e-006 -32.7363 0 150.36 -69.2681 148.683 2.3106e-006 -11.385 -7.56517 0 6.44062e-014 -0 6.18079 -8.58223 4.6309 7.064 -17.5427 15.4604 -1.0381e-005 -39.2652 0 -0 28.0666 0 -0.00334357 -31.3814 0 -126.724 -70.0658 -125.043 -2.72415e-008 -9.94555 -8.16007 0 6.36111e-015 -0 
-63.9205 92.6846 28.11 -9.45926 -2.52934 93.5198 0 0 0 0.370092 -12.9058 -3.30086 -0.0146535 10.7314 1.20016 -0.123301 -4.27653 -4.22838 -0.0615349 10.8421 0.200216 -0.95111 2.66038 -2.02068 -0.0803938 10.955 -0.362586 -11.279 -5.25503 -10.9516 0.744525 13.1821 -0.716092 1.50716 4.28202 39.5517 -0.714609 12.8109 -2.75709 154.754 6.61888 114.166 -0.0803938 10.955 -0.362586 1.17283e-014 0 5.74239e-014 21.0494 8.71366 -1.80014 -5.68418 9.29428 -151.732 1.08638e-009 -27.9395 6.27219e-010 -0 22.6512 0 6.05876e-010 -15.5821 3.49801e-010 9.89497e-015 -6.3992e-015 -155.783 -1.45919e-025 -7.79103 -3.4981e-010 5.59943 -35.6398 0 -1.65336e-025 -4.76355 -2.13835e-010 0 7.12502 -0 -1.45919e-025 -7.79103 -3.4981e-010 -9.60249 -8.76216 2.35816e-015 -0.0803938 10.955 -0.362586 1.17283e-014 0 5.74239e-014 -22.6442 7.32563 -0.641706 4.8206 5.46539 161.876 -9.50233e-010 -24.4394 5.48614e-010 -0 15.6323 0 -7.02403e-010 -18.0654 4.0553e-010 3.41269e-015 -6.02041e-015 149.094 1.69176e-025 -9.03275 -4.05569e-010 2.88737 -36.6903 0 1.88163e-025 -5.42111 -2.43422e-010 0 7.12502 -0 1.69176e-025 -9.03275 -4.05569e-010 18.1343 -9.77586 -3.48531e-015 -6.87808 -8.58224 4.63091 -1.80448 -13.7688 -14.8605 1.05643e-005 -39.9586 0 -0 25.4452 0 8.65485e-006 -32.7363 0 150.293 -69.2313 148.608 2.3106e-006 -11.385 -7.56517 0 6.44062e-014 -0 6.18079 -8.58223 4.6309 7.02185 -17.5267 15.3737 -1.0381e-005 -39.2652 0 -0 28.0375 0 -0.00334357 -31.3814 0 -126.83 -70.1608 -125.163 -2.72415e-008 -9.94555 -8.16007 0 6.36111e-015 -0 
-63.9104 92.6846 28.11 -9.46534 -2.52305 93.4805 0 0 0 0.383158 -12.8997 -3.29026 -0.0146535 10.7314 1.20016 -0.128173 -4.29325 -4.21504 -0.0615349 10.8421 0.200216 -0.959795 2.63881 -2.01406 -0.0803938 10.955 -0.362586 -11.2828 -5.21149 -10.9443 0.744525 13.1821 -0.716092 1.50029 4.2849 39.5036 -0.714609 12.8109 -2.75709 154.784 6.62313 114.091 -0.0803938 10.955 -0.362586 1.17283e-014 0 5.74239e-014 21.0494 8.71366 -1.80014 -5.70691 9.31824 -151.872 1.08638e-009 -27.9395 6.27219e-010 -0 22.7128 0 6.05876e-010 -15.5821 3.49801e-010 9.89864e-015 -6.39755e-015 -155.75 -1.45919e-025 -7.79103 -3.4981e-010 5.59158 -35.6597 0 -1.65336e-025 -4.76355 -2.13835e-010 0 7.12502 -0 -1.45919e-025 -7.79103 -3.4981e-010 -9.61116 -8.78147 2.35945e-015 -0.0803938 10.955 -0.362586 1.17283e-014 0 5.74239e-014 -22.6442 7.32563 -0.641706 4.79597 5.4709 162.14 -9.50233e-010 -24.4394 5.48614e-010 -0 15.7308 0 -7.02403e-010 -18.0654 4.0553e-010 3.36877e-015 -5.9939e-015 148.675 1.69176e-025 -9.03275 -4.05569e-010 2.74796 -36.6392 0 1.88163e-025 -5.42111 -2.43422e-010 0 7.12502 -0 1.69176e-025 -9.03275 -4.05569e-010 17.9926 -9.72654 -3.46675e-015 -6.87808 -8.58224 4.63091 -1.83749 -13.7903 -14.8826 1.05643e-005 -39.9586 0 -0 25.4757 0 8.65485e-006 -32.7363 0 150.231 -69.194 148.538 2.3106e-006 -11.385 -7.56517 0 6.44062e-014 -0 6.18079 -8.58223 4.6309 6.97716 -17.5093 15.2795 -1.0381e-005 -39.2652 0 -0 28.0064 0 -0.00334357 -31.3814 0 -126.94 -70.2627 -125.289 -2.72415e-008 -9.94555 -8.16007 0 6.36111e-015 -0 
-63.907 92.6846 28.11 -9.47632 -2.51082 93.4527 0 0 0 0.360543 -12.9001 -3.28825 -0.0146535 10.7314 1.20016 -0.121911 -4.28818 -4.21013 -0.0615349 10.8421 0.200216 -0.940596 2.6466 -2.01159 -0.0803938 10.955 -0.362586 -11.3052 -5.21771 -10.9355 0.744525 13.1821 -0.716092 1.49732 4.27035 39.4427 -0.714609 12.8109 -2.75709 154.803 6.61361 114.02 -0.0803938 10.955 -0.362586 1.17283e-014 0 5.74239e-014 21.0494 8.71366 -1.80014 -5.72811 9.34039 -152.018 1.08638e-009 -27.9395 6.27219e-010 -0 22.7768 0 6.05876e-010 -15.5821 3.49801e-010 9.90474e-015 -6.3948e-015 -155.695 -1.45919e-025 -7.79103 -3.4981e-010 5.58248 -35.6749 0 -1.65336e-025 -4.76355 -2.13835e-010 0 7.12502 -0 -1.45919e-025 -7.79103 -3.4981e-010 -9.62087 -8.79608 2.36085e-015 -0.0803938 10.955 -0.362586 1.17283e-014 0 5.74239e-014 -22.6442 7.32563 -0.641706 4.77461 5.47089 162.366 -9.50233e-010 -24.4394 5.48614e-010 -0 15.8162 0 -7.02403e-010 -18.0654 4.0553e-010 3.33035e-015 -5.97034e-015 148.307 1.69176e-025 -9.03275 -4.05569e-010 2.61536 -36.5924 0 1.88163e-025 -5.42111 -2.43422e-010 0 7.12502 -0 1.69176e-025 -9.03275 -4.05569e-010 17.8579 -9.68133 -3.44913e-015 -6.87808 -8.58224 4.63091 -1.86831 -13.8108 -14.9061 1.05643e-005 -39.9586 0 -0 25.5032 0 8.65485e-006 -32.7363 0 150.16 -69.1575 148.459 2.3106e-006 -11.385 -7.56517 0 6.44062e-014 -0 6.18079 -8.58223 4.6309 6.93772 -17.4945 15.2004 -1.0381e-005 -39.2652 0 -0 27.9792 0 -0.00334357 -31.3814 0 -127.044 -70.3507 -125.405 -2.72415e-008 -9.94555 -8.16007 0 6.36111e-015 -0 
